<svg width="64" height="78" viewBox="0 0 64 78" fill="none" xmlns="http://www.w3.org/2000/svg">
<path d="M32 0C32 0 50 8.16 50 42C50 51.96 45.84 64.28 43.6 70H20.4C18.16 64.28 14 51.96 14 42C14 8.16 32 0 32 0ZM40 34C40 29.6 36.4 26 32 26C27.6 26 24 29.6 24 34C24 38.4 27.6 42 32 42C36.4 42 40 38.4 40 34ZM14.76 72.08C12.84 67.16 8.68 55.4 8.08 44.6L3.56 47.6C1.32 49.12 0 51.6 0 54.28V78L14.76 72.08ZM64 78V54.28C64 51.6 62.68 49.12 60.44 47.64L55.92 44.64C55.32 55.4 51.12 67.2 49.24 72.12L64 78Z" fill="white"/>
</svg>
